<svg width="22" height="34" viewBox="0 0 22 34" fill="none" xmlns="http://www.w3.org/2000/svg">
    <path d="M10.9985 33.5516C13.1409 33.5516 14.8778 31.8148 14.8778 29.6723C14.8778 27.5298 13.1409 25.793 10.9985 25.793C8.85597 25.793 7.11914 27.5298 7.11914 29.6723C7.11914 31.8148 8.85597 33.5516 10.9985 33.5516Z"
          fill="#495368"/>
    <path d="M10.9983 0.448242C5.43674 0.448242 0.912109 4.97288 0.912109 10.5344V11.5043H8.67073V10.5344C8.67073 9.25098 9.71485 8.20686 10.9983 8.20686C12.2818 8.20686 13.3259 9.25098 13.3259 10.5344C13.3259 11.2184 13.0257 11.8657 12.5022 12.3106L7.11901 16.8873V23.8534H14.8776V20.4747L17.5269 18.2223C19.7878 16.3011 21.0845 13.4991 21.0845 10.5344C21.0845 4.97288 16.5599 0.448242 10.9983 0.448242V0.448242Z"
          fill="#495368"/>
</svg>
