<svg width="200" height="100" viewBox="0 0 200 100" fill="none" xmlns="http://www.w3.org/2000/svg">
<path d="M193.609 100C197.139 100 200.021 97.1357 199.796 93.6132C199.095 82.6658 196.597 71.8932 192.388 61.7317C187.362 49.5991 179.997 38.5752 170.711 29.2893C161.425 20.0035 150.401 12.6375 138.268 7.61205C126.136 2.58658 113.132 -5.74026e-07 100 0C86.8678 5.74026e-07 73.8642 2.58658 61.7317 7.61205C49.5991 12.6375 38.5752 20.0035 29.2893 29.2893C20.0035 38.5752 12.6375 49.5991 7.61204 61.7317C3.40299 71.8932 0.904773 82.6658 0.20416 93.6132C-0.0212741 97.1357 2.86139 100 6.3911 100V100C9.9208 100 12.7578 97.1348 13.0163 93.6146C13.6966 84.347 15.8547 75.2336 19.4213 66.6232C23.8044 56.0414 30.2288 46.4266 38.3277 38.3277C46.4266 30.2288 56.0414 23.8044 66.6232 19.4213C77.2049 15.0382 88.5464 12.7822 100 12.7822C111.454 12.7822 122.795 15.0382 133.377 19.4213C143.959 23.8044 153.573 30.2288 161.672 38.3277C169.771 46.4266 176.196 56.0414 180.579 66.6232C184.145 75.2336 186.303 84.347 186.984 93.6146C187.242 97.1348 190.079 100 193.609 100V100Z" fill="#3D821D"/>
<path d="M192 83.3267C195.533 82.6864 197.899 79.2961 197.031 75.812C193.441 61.4104 186.682 47.9603 177.216 36.4577C166.371 23.2784 152.333 13.0943 136.438 6.87505C120.544 0.655775 103.322 -1.39173 86.412 0.927463C71.6536 2.95161 57.5617 8.24326 45.1512 16.3842C42.1488 18.3536 41.5858 22.4495 43.7462 25.3176V25.3176C45.9065 28.1857 49.971 28.7367 52.9924 26.7965C63.6155 19.9748 75.6198 15.5325 88.1789 13.81C102.89 11.7923 117.872 13.5736 131.7 18.9842C145.528 24.3948 157.741 33.2546 167.176 44.7202C175.231 54.5086 181.033 65.9182 184.205 78.1378C185.108 81.6133 188.467 83.967 192 83.3267V83.3267Z" fill="#FFDA6B"/>
<path d="M193.599 100C197.134 100 200.021 97.1313 199.795 93.6034C198.846 78.7955 194.611 64.3558 187.366 51.3456C180.12 38.3353 170.074 27.1317 157.985 18.5277C155.105 16.4779 151.146 17.4218 149.285 20.4272V20.4272C147.423 23.4326 148.367 27.3591 151.227 29.436C161.472 36.8734 169.997 46.4691 176.181 57.5742C182.366 68.6793 186.035 80.9788 186.963 93.6047C187.223 97.1303 190.064 100 193.599 100V100Z" fill="#FF5D54"/>
</svg>
