<svg width="20" height="20" viewBox="0 0 20 20" fill="none" xmlns="http://www.w3.org/2000/svg">
<path d="M14.5835 1.75011C14.8243 1.50936 15.1101 1.31838 15.4246 1.18808C15.7392 1.05779 16.0763 0.990723 16.4168 0.990723C16.7573 0.990723 17.0945 1.05779 17.409 1.18808C17.7236 1.31838 18.0094 1.50936 18.2502 1.75011C18.4909 1.99087 18.6819 2.27669 18.8122 2.59125C18.9425 2.90582 19.0096 3.24297 19.0096 3.58345C19.0096 3.92393 18.9425 4.26108 18.8122 4.57564C18.6819 4.8902 18.4909 5.17602 18.2502 5.41678L5.87516 17.7918L0.833496 19.1668L2.2085 14.1251L14.5835 1.75011Z" stroke="#68B643" stroke-width="1.5" stroke-linecap="round" stroke-linejoin="round"/>
</svg>
