<svg width="22" height="22" viewBox="0 0 22 22" fill="none" xmlns="http://www.w3.org/2000/svg">
<path d="M13.1934 1.63186L13.1942 1.63319C13.3398 1.87066 13.4193 2.13609 13.3992 2.39081L13.3992 2.3908L13.3987 2.39757C13.3654 2.88638 13.5173 3.34051 13.7406 3.72287L13.7405 3.72294L13.7478 3.73486C14.4927 4.94969 16.1211 5.39749 17.3979 4.71602L17.4066 4.71138L17.4151 4.70649C18.1993 4.25692 19.1894 4.52728 19.6416 5.2939C19.642 5.29445 19.6423 5.295 19.6426 5.29555L20.3824 6.57048L20.3823 6.57051L20.3869 6.57815C20.8425 7.3391 20.5923 8.30538 19.8087 8.74241L19.8024 8.74591L19.7962 8.74955C18.5546 9.47854 18.1013 11.1017 18.8608 12.3551C19.0608 12.6854 19.3375 13.0569 19.8059 13.2899C20.0628 13.4285 20.2822 13.6571 20.4494 13.9132C20.7114 14.3489 20.7133 14.9132 20.4132 15.4661L19.6445 16.7556L19.6432 16.7578C19.3497 17.2546 18.7978 17.5651 18.2432 17.5651C17.9672 17.5651 17.6567 17.4858 17.4134 17.3383C16.9888 17.069 16.5241 16.9909 16.0954 16.9909C14.6494 16.9909 13.4417 18.1678 13.3976 19.5925L13.3972 19.6025V19.6126C13.3972 20.4781 12.6915 21.1834 11.7555 21.1834H10.2498C9.30071 21.1834 8.59701 20.4761 8.59701 19.6126H8.59715L8.59687 19.5992C8.56732 18.1678 7.35449 16.9909 5.90991 16.9909C5.47776 16.9909 5.00759 17.0662 4.58804 17.3407C4.34624 17.4859 4.02725 17.5651 3.76209 17.5651C3.19495 17.5651 2.64414 17.2533 2.35143 16.7584C2.3513 16.7582 2.35117 16.758 2.35104 16.7578L1.58935 15.4616C1.58912 15.4612 1.58888 15.4608 1.58865 15.4604C1.28683 14.9406 1.28787 14.3527 1.5603 13.906L1.56853 13.8925L1.57609 13.8787C1.68542 13.6781 1.91684 13.4413 2.19239 13.2879C2.65658 13.0556 2.93157 12.6865 3.13516 12.3701L3.14143 12.3604L3.14735 12.3504C3.89086 11.0991 3.43973 9.47857 2.19801 8.74955L2.19806 8.74946L2.18797 8.74377C1.41383 8.30763 1.16037 7.33782 1.60987 6.57388L1.61185 6.57048L2.35122 5.29629C2.81524 4.52543 3.79789 4.25682 4.59267 4.70788L4.5926 4.70801L4.60471 4.71455C5.87395 5.39977 7.50288 4.94758 8.24649 3.73486L8.24662 3.73493L8.25367 3.72287C8.47603 3.3421 8.62754 2.89018 8.59591 2.40369C8.58243 2.12902 8.66199 1.86396 8.80268 1.6466L8.80741 1.63929L8.81194 1.63186C9.1048 1.15166 9.64006 0.835188 10.226 0.816748H11.7776C12.3543 0.816748 12.8932 1.13963 13.1934 1.63186ZM11.0137 7.29508C8.93297 7.29508 7.21951 8.93491 7.21951 11.0109C7.21951 13.0899 8.93602 14.7159 11.0137 14.7159C13.1006 14.7159 14.7747 13.081 14.7747 11.0109C14.7747 8.94383 13.1036 7.29508 11.0137 7.29508Z" stroke="#E7FEFE" stroke-width="1.3"/>
</svg>
