<svg width="24" height="24" viewBox="0 0 24 24" fill="none" xmlns="http://www.w3.org/2000/svg">
<circle cx="12" cy="12" r="12" fill="#154EA5"/>
<mask id="mask0" mask-type="alpha" maskUnits="userSpaceOnUse" x="0" y="0" width="24" height="24">
<circle cx="12" cy="12" r="12" fill="#C4C4C4"/>
</mask>
<g mask="url(#mask0)">
<path d="M15.9198 6.08479C18.0328 8.19779 18.0328 11.6237 15.9198 13.7367C13.8068 15.8497 10.3809 15.8497 8.26792 13.7367C6.15492 11.6237 6.15492 8.19779 8.26792 6.08479C10.3809 3.97174 13.8068 3.97174 15.9198 6.08479Z" fill="white"/>
<path d="M20.3938 19.221C15.4613 15.8882 8.72694 15.8882 3.79442 19.221C3.06258 19.7151 2.62537 20.55 2.62537 21.4548V26.143H21.5629V21.4548C21.5629 20.55 21.1256 19.7151 20.3938 19.221Z" fill="white"/>
</g>
</svg>
