<svg width="24" height="24" viewBox="0 0 24 24" fill="none" xmlns="http://www.w3.org/2000/svg">
    <circle cx="12" cy="12" r="12" fill="#4971FF"/>
    <mask id="mask0" mask-type="alpha" maskUnits="userSpaceOnUse" x="0" y="0" width="24" height="24">
        <circle cx="12" cy="12" r="12" fill="#C4C4C4"/>
    </mask>
    <g mask="url(#mask0)">
        <path d="M15.9197 6.08479C18.0328 8.19779 18.0328 11.6237 15.9197 13.7367C13.8067 15.8497 10.3809 15.8497 8.26786 13.7367C6.15485 11.6237 6.15485 8.19779 8.26786 6.08479C10.3809 3.97174 13.8067 3.97174 15.9197 6.08479Z"
              fill="white"/>
        <path d="M20.3939 19.2213C15.4614 15.8885 8.72707 15.8885 3.79454 19.2213C3.06271 19.7153 2.62549 20.5502 2.62549 21.4551V26.1432H21.563V21.4551C21.563 20.5502 21.1257 19.7153 20.3939 19.2213Z"
              fill="white"/>
    </g>
</svg>
